<?xml version="1.0" encoding="iso-8859-1"?>
<!-- Generator: Adobe Illustrator 17.1.0, SVG Export Plug-In . SVG Version: 6.00 Build 0)  -->
<!DOCTYPE svg PUBLIC "-//W3C//DTD SVG 1.1//EN" "http://www.w3.org/Graphics/SVG/1.1/DTD/svg11.dtd">
<svg version="1.1" id="Capa_1" xmlns="http://www.w3.org/2000/svg" xmlns:xlink="http://www.w3.org/1999/xlink" x="0px" y="0px"
	 viewBox="0 0 242.667 242.667" style="enable-background:new 0 0 242.667 242.667;" xml:space="preserve">
<path d="M129.354,162.621c0.232,7.688-3.708,12.7-9.958,16.225c-11.037,6.226-30.251,4.627-40.275-3.192
	c-10.915-8.515-10.072-23.704,1.718-30.935c5.375-3.296,13.214-5.159,22.29-5.297C115.156,139.24,129.022,151.618,129.354,162.621z
	 M108.24,107.858c7.22-2.377,11.556-8.71,11.695-17.444c-0.976-10.042-3.474-19.88-11.331-27.433
	c-4.962-4.771-10.998-6.567-17.643-4.444c-6.252,1.998-9.23,6.925-10.163,13.21c-1.637,11.036,1.119,20.976,7.813,29.785
	C93.618,108.12,100.809,110.305,108.24,107.858z M242.667,0v242.667H0V0H242.667z M132.656,135.103
	c-4.336-3.707-8.891-7.167-13.117-10.992c-5.295-4.792-5.237-9.213-0.013-14.113c1.955-1.833,4.172-3.384,6.241-5.098
	c13.037-10.803,14.531-28.871,3.495-41.711c-0.941-1.095-2.416-1.859-2.61-4.246c4.489,0.417,8.686-0.269,11.469-4.248
	c0.736-1.052,2.523-1.731,1.995-3.201c-0.562-1.564-2.338-0.931-3.583-0.935c-11.591-0.039-23.182,0.04-34.773-0.018
	c-5.287-0.026-10.335,1.025-15.286,2.762c-15.421,5.411-24.825,20.305-22.727,36.274c1.686,12.833,12.949,26.054,30.663,25.77
	c3.188-0.051,4.146,1.11,3.605,4.22c-0.525,3.021-0.282,6.127,1.544,8.735c2.471,3.529,1.668,4.652-2.595,5.131
	c-10.916,1.226-21.574,3.606-30.781,10.11c-8.49,5.998-12.952,14.141-11.55,24.638c1.363,10.209,8.189,16.218,17.214,19.986
	c10.537,4.399,21.585,4.731,32.705,3.323c9.114-1.154,17.621-4.056,25.079-9.717C144.742,170.305,148.094,148.3,132.656,135.103z
	 M188.287,113.041h-15.149V97.891h-7.474v15.149h-15.149v7.474h15.149v15.149h7.474v-15.149h15.149V113.041z"/>
<g>
</g>
<g>
</g>
<g>
</g>
<g>
</g>
<g>
</g>
<g>
</g>
<g>
</g>
<g>
</g>
<g>
</g>
<g>
</g>
<g>
</g>
<g>
</g>
<g>
</g>
<g>
</g>
<g>
</g>
</svg>
