<?xml version="1.0" encoding="iso-8859-1"?>
<!-- Generator: Adobe Illustrator 16.0.0, SVG Export Plug-In . SVG Version: 6.00 Build 0)  -->
<!DOCTYPE svg PUBLIC "-//W3C//DTD SVG 1.1//EN" "http://www.w3.org/Graphics/SVG/1.1/DTD/svg11.dtd">
<svg version="1.1" id="Capa_1" xmlns="http://www.w3.org/2000/svg" xmlns:xlink="http://www.w3.org/1999/xlink" x="0px" y="0px"
	 width="53.938px" height="53.938px" viewBox="0 0 53.938 53.938" style="enable-background:new 0 0 53.938 53.938;"
	 xml:space="preserve">
<g>
	<g>
		<g>
			<path d="M26.969,53.938c-14.871,0-26.968-12.1-26.968-26.97C0.001,12.098,12.098,0,26.969,0s26.968,12.099,26.968,26.969
				C53.937,41.839,41.84,53.938,26.969,53.938z M26.969,3.945c-12.695,0-23.022,10.329-23.022,23.023
				c0,12.693,10.327,23.021,23.022,23.021c12.694,0,23.021-10.328,23.021-23.021C49.989,14.274,39.663,3.945,26.969,3.945z"/>
		</g>
		<g>
			<path d="M15.217,40.079c-0.492,0-0.983-0.181-1.367-0.55c-0.786-0.754-0.813-2.002-0.058-2.787
				c3.611-3.766,8.471-5.84,13.687-5.84c4.629,0,9.084,1.687,12.549,4.748c0.816,0.722,0.894,1.968,0.172,2.783
				c-0.724,0.819-1.969,0.896-2.787,0.174c-2.741-2.424-6.27-3.758-9.934-3.758c-4.129,0-7.979,1.644-10.838,4.621
				C16.253,39.876,15.735,40.079,15.217,40.079z"/>
		</g>
		<g>
			<g>
				<circle cx="20.872" cy="24.363" r="2.604"/>
			</g>
			<g>
				<circle cx="33.067" cy="24.363" r="2.604"/>
			</g>
		</g>
	</g>
</g>
<g>
</g>
<g>
</g>
<g>
</g>
<g>
</g>
<g>
</g>
<g>
</g>
<g>
</g>
<g>
</g>
<g>
</g>
<g>
</g>
<g>
</g>
<g>
</g>
<g>
</g>
<g>
</g>
<g>
</g>
</svg>
